<svg xmlns="http://www.w3.org/2000/svg" width="28" height="28" viewBox="0 0 28 28">
  <g fill="none" fill-rule="evenodd">
    <path fill="#0E6CA0" d="M0.666666667,14 C0.666666667,21.3733333 6.62666667,27.3333333 14,27.3333333 C21.3733333,27.3333333 27.3333333,21.3733333 27.3333333,14 C27.3333333,6.62666667 21.3733333,0.666666667 14,0.666666667 C6.62666667,0.666666667 0.666666667,6.62666667 0.666666667,14 Z M3.33333333,14 C3.33333333,8.12 8.12,3.33333333 14,3.33333333 C19.88,3.33333333 24.6666667,8.12 24.6666667,14 C24.6666667,19.88 19.88,24.6666667 14,24.6666667 C8.12,24.6666667 3.33333333,19.88 3.33333333,14 Z"/>
    <polygon fill="#0E6CA0" points="11.306 18.702 16.267 13.729 11.306 8.757 12.833 7.229 19.333 13.729 12.833 20.229"/>
  </g>
</svg>
